<?xml version="1.0"?>
<svg xmlns="http://www.w3.org/2000/svg" viewBox="0 0 256 256" width="256" height="256">
  <rect width="256" height="256" rx="48" fill="#1A1815"></rect>
  <g transform="translate(18.87 191.05) scale(0.9056)">
    <path d="M116.80-4.39L116.80-4.39Q116.80-3.42 114.60-2.83Q112.40-2.25 109.23-1.95Q106.05-1.66 102.44-1.56Q98.83-1.46 96.09-1.46L96.09-1.46L91.50-1.46Q88.67-1.46 85.99-1.27Q83.30-1.07 80.47-1.07L80.47-1.07Q79.59-1.07 78.08-1.12Q76.56-1.17 75.15-1.56Q73.73-1.95 72.71-2.64Q71.68-3.32 71.68-4.69L71.68-4.69Q71.68-4.88 72.22-6.64Q72.75-8.40 73.78-10.40Q74.80-12.40 76.27-14.01Q77.73-15.63 79.59-15.63L79.59-15.63Q80.66-15.63 81.54-15.33L81.54-15.33Q81.84-16.60 81.84-18.07L81.84-18.07Q81.84-20.90 80.71-23.24Q79.59-25.59 78.17-27.83Q76.76-30.08 75.39-32.37Q74.02-34.67 73.54-37.40L73.54-37.40Q73.24-38.96 72.51-40.09Q71.78-41.21 70.95-42.29Q70.12-43.36 69.38-44.53Q68.65-45.70 68.36-47.36L68.36-47.36Q68.16-48.63 67.92-49.27Q67.68-49.90 67.29-50.29Q66.89-50.68 66.26-50.98Q65.63-51.27 64.65-51.95L64.65-51.95Q63.67-52.54 63.33-53.32Q62.99-54.10 62.84-54.93Q62.70-55.76 62.60-56.69Q62.50-57.62 62.11-58.50L62.11-58.50Q61.33-58.89 60.69-59.18Q60.06-59.47 59.28-59.86L59.28-59.86Q58.69-61.23 58.20-62.94Q57.71-64.65 56.98-66.21Q56.25-67.77 55.13-68.80Q54.00-69.82 52.05-69.82L52.05-69.82Q50.78-69.82 49.46-68.70Q48.14-67.58 46.73-66.02Q45.31-64.45 43.95-62.74Q42.58-61.04 41.21-59.86L41.21-59.86Q41.11-59.47 41.11-59.08Q41.11-58.69 41.11-58.30L41.11-58.30Q41.11-57.13 41.21-55.91Q41.31-54.69 41.31-53.52L41.31-53.52Q41.31-51.86 40.87-50.68Q40.43-49.51 39.84-48.39Q39.26-47.27 38.82-46.14Q38.38-45.02 38.38-43.55L38.38-43.55Q38.38-40.43 39.11-37.30Q39.84-34.18 39.84-31.05L39.84-31.05Q39.84-29.39 39.70-27.73Q39.55-26.07 39.55-24.41L39.55-24.41Q39.55-20.90 40.82-18.99Q42.09-17.09 43.95-16.02Q45.80-14.94 48.05-14.50Q50.29-14.06 52.15-13.62Q54.00-13.18 55.27-12.45Q56.54-11.72 56.54-10.06L56.54-10.06Q56.54-8.79 55.91-7.32Q55.27-5.86 54.20-4.59Q53.13-3.32 51.81-2.39Q50.49-1.46 49.22-1.37L49.22-1.37Q48.63-1.27 48.05-1.27Q47.46-1.27 46.88-1.27L46.88-1.27Q45.41-1.27 43.95-1.61Q42.48-1.95 40.92-1.95L40.92-1.95Q39.65-1.95 38.43-1.56Q37.21-1.17 35.94-0.88L35.94-0.88Q32.81-0.20 29.59 0.34Q26.37 0.88 23.24 0.88L23.24 0.88Q21.97 0.88 20.21 0.10Q18.46-0.68 16.85-1.95Q15.23-3.22 14.11-4.88Q12.99-6.54 12.99-8.30L12.99-8.30Q12.99-10.94 14.84-12.74Q16.70-14.55 18.95-15.33L18.95-15.33Q19.82-16.89 21.04-17.19Q22.27-17.48 23.39-17.63Q24.51-17.77 25.39-18.41Q26.27-19.04 26.46-21.39L26.46-21.39Q26.66-23.34 27.59-24.90Q28.52-26.46 28.52-28.32L28.52-28.32L28.42-28.81Q27.73-35.64 27.00-42.38Q26.27-49.12 26.27-56.05L26.27-56.05Q26.27-62.50 26.51-68.99Q26.76-75.49 27.44-81.93L27.44-81.93Q27.64-83.30 27.88-84.72Q28.13-86.13 28.13-87.60L28.13-87.60Q28.13-89.16 27.34-90.48Q26.56-91.80 26.56-93.46L26.56-93.46Q26.56-95.41 26.81-97.22Q27.05-99.02 27.05-100.98L27.05-100.98Q27.05-102.34 26.81-103.61Q26.56-104.88 26.56-106.15L26.56-106.15Q26.56-108.01 26.66-109.81Q26.76-111.62 26.76-113.38L26.76-113.38Q26.76-117.19 26.32-119.43Q25.88-121.68 24.56-122.80Q23.24-123.93 20.95-124.27Q18.65-124.61 14.84-124.61L14.84-124.61Q13.28-124.61 11.67-124.71Q10.06-124.80 8.74-125.39Q7.42-125.98 6.54-127.10Q5.66-128.22 5.66-130.27L5.66-130.27Q5.66-132.32 6.59-134.42Q7.52-136.52 9.18-137.79L9.18-137.79Q10.45-138.77 13.13-139.50Q15.82-140.23 19.29-140.72Q22.75-141.21 26.61-141.46Q30.47-141.70 34.13-141.85Q37.79-141.99 40.82-142.04Q43.85-142.09 45.70-142.09L45.70-142.09Q48.93-142.09 51.03-141.70Q53.13-141.31 54.44-140.14Q55.76-138.96 56.30-136.91Q56.84-134.86 56.84-131.54L56.84-131.54Q56.84-128.13 55.27-125.78Q53.71-123.44 49.80-123.44L49.80-123.44Q48.73-123.44 47.66-123.58Q46.58-123.73 45.51-123.73L45.51-123.73Q44.04-123.73 42.58-122.61Q41.11-121.48 39.99-120.02Q38.87-118.55 38.18-117.19Q37.50-115.82 37.50-115.23L37.50-115.23Q37.50-113.57 38.13-111.96Q38.77-110.35 38.77-108.69L38.77-108.69Q38.77-106.74 38.18-104.98Q37.60-103.22 37.60-101.27L37.60-101.27Q37.60-100.49 37.70-99.85Q37.79-99.22 37.99-98.54L37.99-98.54Q38.09-97.75 38.18-96.00Q38.28-94.24 38.38-92.04Q38.48-89.84 38.67-87.55Q38.87-85.25 39.26-83.35Q39.65-81.45 40.28-80.22Q40.92-79.00 41.99-79.00L41.99-79.00Q43.55-79.00 45.65-81.54Q47.75-84.08 49.76-87.45Q51.76-90.82 53.27-94.09Q54.79-97.36 55.08-98.83L55.08-98.83Q57.03-99.71 58.64-101.03Q60.25-102.34 61.62-103.81L61.62-103.81Q62.60-104.79 64.60-107.03Q66.60-109.28 68.65-111.82Q70.70-114.36 72.22-116.70Q73.73-119.04 73.73-120.31L73.73-120.31Q73.73-121.78 72.95-123.44Q72.17-125.10 71.29-126.95Q70.41-128.81 69.63-130.71Q68.85-132.62 68.85-134.67L68.85-134.67Q68.85-136.43 71.00-137.50Q73.14-138.57 76.07-139.21Q79.00-139.84 81.98-140.09Q84.96-140.33 86.62-140.33L86.62-140.33Q93.95-140.33 101.12-138.53Q108.30-136.72 114.94-133.59L114.94-133.59Q113.87-130.47 112.35-129.00Q110.84-127.54 109.08-126.86Q107.32-126.17 105.27-126.03Q103.22-125.88 101.07-125.54Q98.93-125.20 96.73-124.32Q94.53-123.44 92.48-121.29L92.48-121.29Q90.92-119.63 89.55-117.87Q88.18-116.11 86.77-114.45Q85.35-112.79 83.79-111.28Q82.23-109.77 80.18-108.59L80.18-108.59L80.18-108.11Q80.18-104.59 78.32-101.86Q76.46-99.12 74.27-96.29Q72.07-93.46 70.21-90.14Q68.36-86.82 68.36-82.13L68.36-82.13Q68.36-79.79 68.85-77.00Q69.34-74.22 70.41-71.63Q71.48-69.04 73.19-66.99Q74.90-64.94 77.34-64.06L77.34-64.06Q77.34-63.57 77.54-61.87Q77.73-60.16 78.08-58.15Q78.42-56.15 78.96-54.25Q79.49-52.34 80.18-51.46L80.18-51.46Q80.76-50.78 80.91-50.29Q81.05-49.80 81.10-49.37Q81.15-48.93 81.20-48.49Q81.25-48.05 81.54-47.36L81.54-47.36Q82.23-46.88 82.91-46.58Q83.59-46.29 84.38-45.90L84.38-45.90L84.38-41.80Q84.67-40.92 85.16-40.72Q85.64-40.53 86.43-40.53L86.43-40.53Q87.01-40.53 87.35-39.26Q87.70-37.99 88.04-36.18Q88.38-34.38 88.77-32.42Q89.16-30.47 89.94-29.20L89.94-29.20Q90.92-27.54 91.65-25.68Q92.38-23.83 93.12-22.02Q93.85-20.21 94.73-18.46Q95.61-16.70 96.88-15.33L96.88-15.33Q98.73-13.28 101.51-12.06Q104.30-10.84 106.84-10.35L106.84-10.35Q107.52-10.16 109.18-9.52Q110.84-8.89 112.55-8.01Q114.26-7.13 115.53-6.15Q116.80-5.18 116.80-4.39ZM235.35-128.32L235.35-128.32Q235.35-127.44 234.91-126.37Q234.47-125.29 233.40-125.29L233.40-125.29Q233.01-125.29 232.67-125.68Q232.32-126.07 232.03-126.56Q231.74-127.05 231.40-127.44Q231.05-127.83 230.66-127.93L230.66-127.93Q230.76-126.07 230.66-125.10Q230.57-124.12 230.37-123.68Q230.18-123.24 229.83-123.19Q229.49-123.14 229.10-123.14L229.10-123.14Q228.32-123.14 227.64-123.05Q226.95-122.95 226.27-122.75L226.27-122.75Q224.02-122.27 222.90-122.12Q221.78-121.97 221.29-121.48Q220.80-121.00 220.70-119.92Q220.61-118.85 220.41-116.50L220.41-116.50Q220.21-114.75 220.12-113.04Q220.02-111.33 220.02-109.57L220.02-109.57Q220.02-104.88 220.46-100.39Q220.90-95.90 220.90-91.21L220.90-91.21Q220.90-88.96 220.56-86.82Q220.21-84.67 220.21-82.42L220.21-82.42Q220.21-80.47 221.04-78.56Q221.88-76.66 221.88-75L221.88-75Q221.88-74.51 221.53-74.07Q221.19-73.63 220.75-73.14Q220.31-72.66 219.97-72.07Q219.63-71.48 219.63-70.70L219.63-70.70Q219.63-68.65 220.36-66.75Q221.09-64.84 221.09-62.79L221.09-62.79Q221.09-59.67 220.70-56.54Q220.31-53.42 219.87-50.29Q219.43-47.17 219.04-44.04Q218.65-40.92 218.65-37.79L218.65-37.79Q218.65-35.25 218.99-32.96Q219.34-30.66 220.21-28.42L220.21-28.42Q220.41-27.93 220.61-27.34Q220.80-26.76 220.80-26.27L220.80-26.27Q220.80-25 220.17-24.17Q219.53-23.34 219.53-22.75L219.53-22.75Q219.53-22.27 220.17-21.58Q220.80-20.90 221.00-20.31L221.00-20.31Q221.68-18.07 222.07-15.38Q222.46-12.70 222.46-10.35L222.46-10.35Q222.46-8.30 221.39-6.35Q220.31-4.39 218.55-2.88Q216.80-1.37 214.60-0.39Q212.40 0.59 210.16 0.59L210.16 0.59Q207.13 0.59 205.03-1.27Q202.93-3.13 201.42-5.81Q199.90-8.50 198.68-11.43Q197.46-14.36 196.29-16.50L196.29-16.50Q195.31-18.26 194.78-19.87Q194.24-21.48 193.65-23.05Q193.07-24.61 192.19-26.12Q191.31-27.64 189.75-29.10L189.75-29.10Q188.48-30.27 187.79-31.88Q187.11-33.50 186.67-35.30Q186.23-37.11 185.89-38.92Q185.55-40.72 185.16-42.29L185.16-42.29Q184.08-46.09 182.62-49.80Q181.15-53.52 179.79-57.23L179.79-57.23Q179.30-58.40 178.56-59.86Q177.83-61.33 177.05-62.79Q176.27-64.26 175.63-65.63Q175-66.99 174.90-68.16L174.90-68.16Q174.51-71.39 173.24-73.97Q171.97-76.56 170.51-78.91Q169.04-81.25 167.68-83.69Q166.31-86.13 165.82-89.16L165.82-89.16Q165.63-90.14 165.14-91.75Q164.65-93.36 163.87-94.97Q163.09-96.58 162.01-97.75Q160.94-98.93 159.77-98.93L159.77-98.93Q158.69-98.93 158.06-97.90Q157.42-96.88 157.03-95.46Q156.64-94.04 156.49-92.63Q156.35-91.21 156.35-90.53L156.35-90.53Q156.35-88.57 156.59-86.62Q156.84-84.67 156.84-82.71L156.84-82.71Q156.84-81.25 156.25-79.88Q155.66-78.52 155.66-77.15L155.66-77.15Q155.66-76.27 156.30-75.68Q156.93-75.10 156.93-74.32L156.93-74.32Q156.93-73.54 156.74-72.80Q156.54-72.07 156.54-71.29L156.54-71.29Q156.54-68.85 156.79-66.50Q157.03-64.16 157.03-61.82L157.03-61.82Q157.03-60.16 156.84-58.45Q156.64-56.74 156.05-55.27Q155.47-53.81 154.30-52.78Q153.13-51.76 151.27-51.46L151.27-51.46Q151.66-50.68 152.29-50.44Q152.93-50.20 153.61-50.10Q154.30-50 154.79-49.80Q155.27-49.61 155.27-48.73L155.27-48.73Q155.27-48.24 155.22-47.90Q155.18-47.56 155.18-47.17L155.18-47.17Q155.18-46.09 155.62-45.41Q156.05-44.73 156.64-44.09Q157.23-43.46 157.67-42.82Q158.11-42.19 158.11-41.21L158.11-41.21Q158.11-40.04 157.81-38.96Q157.52-37.89 157.52-36.82L157.52-36.82Q157.52-34.47 158.11-32.28Q158.69-30.08 158.69-27.73L158.69-27.73Q158.69-26.46 158.45-25.93Q158.20-25.39 157.86-25.10Q157.52-24.80 157.28-24.66Q157.03-24.51 157.03-23.93L157.03-23.93Q157.03-22.95 157.32-22.12Q157.62-21.29 157.62-20.31L157.62-20.31Q157.62-19.73 157.47-19.14Q157.32-18.55 156.84-18.07L156.84-18.07Q156.93-16.89 157.62-16.41Q158.30-15.92 159.23-15.53Q160.16-15.14 161.04-14.70Q161.91-14.26 162.40-13.18L162.40-13.18Q162.79-12.30 163.23-11.57Q163.67-10.84 164.75-10.84L164.75-10.84Q166.41-10.84 167.77-11.57Q169.14-12.30 170.70-12.30L170.70-12.30Q173.24-12.30 174.22-10.30Q175.20-8.30 175.20-6.15L175.20-6.15Q175.20-3.42 174.27-2.29Q173.34-1.17 172.22-0.63Q171.09-0.10 170.17 0.39Q169.24 0.88 169.24 2.25L169.24 2.25Q169.24 2.44 169.29 2.54Q169.34 2.64 169.34 2.83L169.34 2.83Q167.97 1.95 166.46 1.56Q164.94 1.17 163.28 1.17L163.28 1.17Q160.35 1.17 157.47 2.00Q154.59 2.83 151.66 2.83L151.66 2.83Q149.51 2.83 147.46 2.44Q145.41 2.05 143.26 2.05L143.26 2.05Q141.89 2.05 140.58 2.39Q139.26 2.73 137.89 2.73L137.89 2.73Q136.52 2.73 134.28 2.10Q132.03 1.46 129.88 0.44Q127.73-0.59 126.22-1.81Q124.71-3.03 124.71-4.10L124.71-4.10Q124.71-7.03 126.66-9.42Q128.61-11.82 131.54-12.30L131.54-12.30Q133.01-12.60 134.81-12.60Q136.62-12.60 138.38-12.74Q140.14-12.89 141.70-13.43Q143.26-13.96 144.34-15.33L144.34-15.33Q143.95-16.80 143.95-18.65L143.95-18.65Q143.95-22.07 144.82-25.29Q145.70-28.52 145.70-31.93L145.70-31.93Q145.70-33.30 145.41-34.77L145.41-34.77Q144.24-41.50 144.24-48.34L144.24-48.34Q144.24-50.29 144.34-52.29Q144.43-54.30 144.43-56.25L144.43-56.25Q144.43-61.33 143.70-66.31Q142.97-71.29 142.77-76.37L142.77-76.37Q142.58-81.74 142.58-86.96Q142.58-92.19 141.50-97.46L141.50-97.46Q141.21-98.83 141.16-100.10Q141.11-101.37 141.11-102.73L141.11-102.73L141.11-106.25Q141.11-110.35 140.72-112.40Q140.33-114.45 139.36-115.38Q138.38-116.31 136.87-116.55Q135.35-116.80 133.11-117.09L133.11-117.09Q131.84-117.29 130.52-118.36Q129.20-119.43 128.08-120.90Q126.95-122.36 126.22-123.93Q125.49-125.49 125.49-126.76L125.49-126.76L125.49-128.91Q125.49-132.81 126.66-134.91Q127.83-137.01 129.88-138.04Q131.93-139.06 134.72-139.26Q137.50-139.45 140.72-139.45L140.72-139.45Q143.95-139.45 147.41-139.21Q150.88-138.96 154.10-138.13Q157.32-137.30 159.96-135.69Q162.60-134.08 164.26-131.35L164.26-131.35Q165.33-129.49 166.11-127.49Q166.89-125.49 167.58-123.44Q168.26-121.39 168.95-119.38Q169.63-117.38 170.70-115.53L170.70-115.53Q171.19-114.65 171.44-113.62Q171.68-112.60 171.92-111.57Q172.17-110.55 172.46-109.62Q172.75-108.69 173.34-107.81L173.34-107.81Q174.02-107.03 174.95-106.20Q175.88-105.37 176.37-104.39L176.37-104.39Q177.25-102.44 177.59-100.34Q177.93-98.24 178.22-96.14Q178.52-94.04 178.86-91.94Q179.20-89.84 180.08-87.89L180.08-87.89Q180.66-86.72 181.20-85.94Q181.74-85.16 182.18-84.42Q182.62-83.69 182.96-82.76Q183.30-81.84 183.50-80.37L183.50-80.37Q183.69-78.22 183.89-76.12Q184.08-74.02 184.86-71.97L184.86-71.97Q185.45-70.51 186.43-69.24Q187.40-67.97 188.43-66.75Q189.45-65.53 190.43-64.26Q191.41-62.99 191.89-61.43L191.89-61.43Q192.87-58.50 193.75-55.96Q194.63-53.42 197.17-51.46L197.17-51.46Q196.58-50.59 196.14-49.56Q195.70-48.54 195.70-47.46L195.70-47.46Q195.70-45.41 196.73-43.41Q197.75-41.41 198.54-39.55L198.54-39.55Q199.12-38.09 199.76-37.01Q200.39-35.94 201.95-35.16L201.95-35.16Q203.32-34.47 203.81-33.94Q204.30-33.40 204.39-32.76Q204.49-32.13 204.44-31.30Q204.39-30.47 204.69-29.20L204.69-29.20Q204.79-28.61 205.08-27.78Q205.37-26.95 205.81-26.12Q206.25-25.29 206.84-24.71Q207.42-24.12 208.11-24.12L208.11-24.12Q208.69-24.12 208.98-24.56Q209.28-25 209.47-25.59Q209.67-26.17 209.72-26.81Q209.77-27.44 209.77-27.83L209.77-27.83Q209.77-29.20 210.50-30.32Q211.23-31.45 211.23-32.91L211.23-32.91Q211.23-34.57 210.50-35.94Q209.77-37.30 209.77-38.96L209.77-38.96Q209.77-40.33 210.30-41.46Q210.84-42.58 210.84-43.95L210.84-43.95Q210.84-44.92 210.11-45.61Q209.38-46.29 209.38-46.97L209.38-46.97Q209.38-47.27 209.67-47.31Q209.96-47.36 210.25-47.46Q210.55-47.56 210.84-47.80Q211.13-48.05 211.13-48.73L211.13-48.73Q211.13-51.07 210.60-53.27Q210.06-55.47 209.38-57.71Q208.69-59.96 208.15-62.26Q207.62-64.55 207.62-66.89L207.62-66.89Q207.62-69.24 208.59-71.00Q209.57-72.75 209.57-73.34L209.57-73.34Q209.57-74.61 208.94-75.63Q208.30-76.66 208.30-77.93L208.30-77.93Q208.30-79.39 209.03-80.71Q209.77-82.03 209.77-83.50L209.77-83.50Q209.77-84.38 209.38-85.21Q208.98-86.04 208.50-86.91Q208.01-87.79 207.57-88.72Q207.13-89.65 206.93-90.53L206.93-90.53Q206.64-91.99 206.59-93.55Q206.54-95.12 206.54-96.68L206.54-96.68L206.54-100.88Q206.54-103.52 206.30-106.01Q206.05-108.50 205.37-111.04L205.37-111.04Q204.79-113.38 204.69-115.33Q204.59-117.29 204.10-118.75Q203.61-120.21 202.25-121.14Q200.88-122.07 197.75-122.27L197.75-122.27Q195.51-122.46 193.26-122.51Q191.02-122.56 188.77-123.14L188.77-123.14Q187.30-123.54 186.57-124.80Q185.84-126.07 185.55-127.64Q185.25-129.20 185.25-130.81Q185.25-132.42 185.25-133.40L185.25-133.40Q185.25-135.25 187.06-136.47Q188.87-137.70 191.36-138.48Q193.85-139.26 196.39-139.60Q198.93-139.94 200.29-139.94L200.29-139.94Q201.17-139.94 203.42-139.84Q205.66-139.75 208.40-139.45Q211.13-139.16 214.06-138.72Q216.99-138.28 219.43-137.55Q221.88-136.82 223.44-135.84Q225-134.86 225-133.59L225-133.59Q225.88-134.57 226.95-135.25Q228.03-135.94 229.39-135.94L229.39-135.94Q230.66-135.94 231.79-135.21Q232.91-134.47 233.69-133.30Q234.47-132.13 234.91-130.81Q235.35-129.49 235.35-128.32ZM143.07-6.64L143.07-6.64Q143.07-7.52 142.58-7.96Q142.09-8.40 141.36-8.59Q140.63-8.79 139.89-9.03Q139.16-9.28 138.77-9.77L138.77-9.77Q138.67-9.47 138.62-9.23Q138.57-8.98 138.57-8.69L138.57-8.69Q138.57-7.81 139.06-7.37Q139.55-6.93 140.28-6.74Q141.02-6.54 141.70-6.30Q142.38-6.05 142.87-5.57L142.87-5.57Q142.97-5.86 143.02-6.10Q143.07-6.35 143.07-6.64Z" fill="#EFE6CE"></path>
  </g>
</svg>