<?xml version="1.0"?>
<svg xmlns="http://www.w3.org/2000/svg" viewBox="0 0 867 197" width="867" height="197">
  <g transform="translate(18.34 166.09)">
    <path d="M116.80-4.39L116.80-4.39Q116.80-3.42 114.60-2.83Q112.40-2.25 109.23-1.95Q106.05-1.66 102.44-1.56Q98.83-1.46 96.09-1.46L96.09-1.46L91.50-1.46Q88.67-1.46 85.99-1.27Q83.30-1.07 80.47-1.07L80.47-1.07Q79.59-1.07 78.08-1.12Q76.56-1.17 75.15-1.56Q73.73-1.95 72.71-2.64Q71.68-3.32 71.68-4.69L71.68-4.69Q71.68-4.88 72.22-6.64Q72.75-8.40 73.78-10.40Q74.80-12.40 76.27-14.01Q77.73-15.63 79.59-15.63L79.59-15.63Q80.66-15.63 81.54-15.33L81.54-15.33Q81.84-16.60 81.84-18.07L81.84-18.07Q81.84-20.90 80.71-23.24Q79.59-25.59 78.17-27.83Q76.76-30.08 75.39-32.37Q74.02-34.67 73.54-37.40L73.54-37.40Q73.24-38.96 72.51-40.09Q71.78-41.21 70.95-42.29Q70.12-43.36 69.38-44.53Q68.65-45.70 68.36-47.36L68.36-47.36Q68.16-48.63 67.92-49.27Q67.68-49.90 67.29-50.29Q66.89-50.68 66.26-50.98Q65.63-51.27 64.65-51.95L64.65-51.95Q63.67-52.54 63.33-53.32Q62.99-54.10 62.84-54.93Q62.70-55.76 62.60-56.69Q62.50-57.62 62.11-58.50L62.11-58.50Q61.33-58.89 60.69-59.18Q60.06-59.47 59.28-59.86L59.28-59.86Q58.69-61.23 58.20-62.94Q57.71-64.65 56.98-66.21Q56.25-67.77 55.13-68.80Q54.00-69.82 52.05-69.82L52.05-69.82Q50.78-69.82 49.46-68.70Q48.14-67.58 46.73-66.02Q45.31-64.45 43.95-62.74Q42.58-61.04 41.21-59.86L41.21-59.86Q41.11-59.47 41.11-59.08Q41.11-58.69 41.11-58.30L41.11-58.30Q41.11-57.13 41.21-55.91Q41.31-54.69 41.31-53.52L41.31-53.52Q41.31-51.86 40.87-50.68Q40.43-49.51 39.84-48.39Q39.26-47.27 38.82-46.14Q38.38-45.02 38.38-43.55L38.38-43.55Q38.38-40.43 39.11-37.30Q39.84-34.18 39.84-31.05L39.84-31.05Q39.84-29.39 39.70-27.73Q39.55-26.07 39.55-24.41L39.55-24.41Q39.55-20.90 40.82-18.99Q42.09-17.09 43.95-16.02Q45.80-14.94 48.05-14.50Q50.29-14.06 52.15-13.62Q54.00-13.18 55.27-12.45Q56.54-11.72 56.54-10.06L56.54-10.06Q56.54-8.79 55.91-7.32Q55.27-5.86 54.20-4.59Q53.13-3.32 51.81-2.39Q50.49-1.46 49.22-1.37L49.22-1.37Q48.63-1.27 48.05-1.27Q47.46-1.27 46.88-1.27L46.88-1.27Q45.41-1.27 43.95-1.61Q42.48-1.95 40.92-1.95L40.92-1.95Q39.65-1.95 38.43-1.56Q37.21-1.17 35.94-0.88L35.94-0.88Q32.81-0.20 29.59 0.34Q26.37 0.88 23.24 0.88L23.24 0.88Q21.97 0.88 20.21 0.10Q18.46-0.68 16.85-1.95Q15.23-3.22 14.11-4.88Q12.99-6.54 12.99-8.30L12.99-8.30Q12.99-10.94 14.84-12.74Q16.70-14.55 18.95-15.33L18.95-15.33Q19.82-16.89 21.04-17.19Q22.27-17.48 23.39-17.63Q24.51-17.77 25.39-18.41Q26.27-19.04 26.46-21.39L26.46-21.39Q26.66-23.34 27.59-24.90Q28.52-26.46 28.52-28.32L28.52-28.32L28.42-28.81Q27.73-35.64 27.00-42.38Q26.27-49.12 26.27-56.05L26.27-56.05Q26.27-62.50 26.51-68.99Q26.76-75.49 27.44-81.93L27.44-81.93Q27.64-83.30 27.88-84.72Q28.13-86.13 28.13-87.60L28.13-87.60Q28.13-89.16 27.34-90.48Q26.56-91.80 26.56-93.46L26.56-93.46Q26.56-95.41 26.81-97.22Q27.05-99.02 27.05-100.98L27.05-100.98Q27.05-102.34 26.81-103.61Q26.56-104.88 26.56-106.15L26.56-106.15Q26.56-108.01 26.66-109.81Q26.76-111.62 26.76-113.38L26.76-113.38Q26.76-117.19 26.32-119.43Q25.88-121.68 24.56-122.80Q23.24-123.93 20.95-124.27Q18.65-124.61 14.84-124.61L14.84-124.61Q13.28-124.61 11.67-124.71Q10.06-124.80 8.74-125.39Q7.42-125.98 6.54-127.10Q5.66-128.22 5.66-130.27L5.66-130.27Q5.66-132.32 6.59-134.42Q7.52-136.52 9.18-137.79L9.18-137.79Q10.45-138.77 13.13-139.50Q15.82-140.23 19.29-140.72Q22.75-141.21 26.61-141.46Q30.47-141.70 34.13-141.85Q37.79-141.99 40.82-142.04Q43.85-142.09 45.70-142.09L45.70-142.09Q48.93-142.09 51.03-141.70Q53.13-141.31 54.44-140.14Q55.76-138.96 56.30-136.91Q56.84-134.86 56.84-131.54L56.84-131.54Q56.84-128.13 55.27-125.78Q53.71-123.44 49.80-123.44L49.80-123.44Q48.73-123.44 47.66-123.58Q46.58-123.73 45.51-123.73L45.51-123.73Q44.04-123.73 42.58-122.61Q41.11-121.48 39.99-120.02Q38.87-118.55 38.18-117.19Q37.50-115.82 37.50-115.23L37.50-115.23Q37.50-113.57 38.13-111.96Q38.77-110.35 38.77-108.69L38.77-108.69Q38.77-106.74 38.18-104.98Q37.60-103.22 37.60-101.27L37.60-101.27Q37.60-100.49 37.70-99.85Q37.79-99.22 37.99-98.54L37.99-98.54Q38.09-97.75 38.18-96.00Q38.28-94.24 38.38-92.04Q38.48-89.84 38.67-87.55Q38.87-85.25 39.26-83.35Q39.65-81.45 40.28-80.22Q40.92-79.00 41.99-79.00L41.99-79.00Q43.55-79.00 45.65-81.54Q47.75-84.08 49.76-87.45Q51.76-90.82 53.27-94.09Q54.79-97.36 55.08-98.83L55.08-98.83Q57.03-99.71 58.64-101.03Q60.25-102.34 61.62-103.81L61.62-103.81Q62.60-104.79 64.60-107.03Q66.60-109.28 68.65-111.82Q70.70-114.36 72.22-116.70Q73.73-119.04 73.73-120.31L73.73-120.31Q73.73-121.78 72.95-123.44Q72.17-125.10 71.29-126.95Q70.41-128.81 69.63-130.71Q68.85-132.62 68.85-134.67L68.85-134.67Q68.85-136.43 71.00-137.50Q73.14-138.57 76.07-139.21Q79.00-139.84 81.98-140.09Q84.96-140.33 86.62-140.33L86.62-140.33Q93.95-140.33 101.12-138.53Q108.30-136.72 114.94-133.59L114.94-133.59Q113.87-130.47 112.35-129.00Q110.84-127.54 109.08-126.86Q107.32-126.17 105.27-126.03Q103.22-125.88 101.07-125.54Q98.93-125.20 96.73-124.32Q94.53-123.44 92.48-121.29L92.48-121.29Q90.92-119.63 89.55-117.87Q88.18-116.11 86.77-114.45Q85.35-112.79 83.79-111.28Q82.23-109.77 80.18-108.59L80.18-108.59L80.18-108.11Q80.18-104.59 78.32-101.86Q76.46-99.12 74.27-96.29Q72.07-93.46 70.21-90.14Q68.36-86.82 68.36-82.13L68.36-82.13Q68.36-79.79 68.85-77.00Q69.34-74.22 70.41-71.63Q71.48-69.04 73.19-66.99Q74.90-64.94 77.34-64.06L77.34-64.06Q77.34-63.57 77.54-61.87Q77.73-60.16 78.08-58.15Q78.42-56.15 78.96-54.25Q79.49-52.34 80.18-51.46L80.18-51.46Q80.76-50.78 80.91-50.29Q81.05-49.80 81.10-49.37Q81.15-48.93 81.20-48.49Q81.25-48.05 81.54-47.36L81.54-47.36Q82.23-46.88 82.91-46.58Q83.59-46.29 84.38-45.90L84.38-45.90L84.38-41.80Q84.67-40.92 85.16-40.72Q85.64-40.53 86.43-40.53L86.43-40.53Q87.01-40.53 87.35-39.26Q87.70-37.99 88.04-36.18Q88.38-34.38 88.77-32.42Q89.16-30.47 89.94-29.20L89.94-29.20Q90.92-27.54 91.65-25.68Q92.38-23.83 93.12-22.02Q93.85-20.21 94.73-18.46Q95.61-16.70 96.88-15.33L96.88-15.33Q98.73-13.28 101.51-12.06Q104.30-10.84 106.84-10.35L106.84-10.35Q107.52-10.16 109.18-9.52Q110.84-8.89 112.55-8.01Q114.26-7.13 115.53-6.15Q116.80-5.18 116.80-4.39ZM211.13-20.41L211.13-20.41Q211.13-17.77 210.30-15.92Q209.47-14.06 208.15-12.60Q206.84-11.13 205.13-9.86Q203.42-8.59 201.66-7.13L201.66-7.13Q200.29-5.96 199.22-5.37Q198.14-4.79 197.12-4.39Q196.09-4.00 194.97-3.61Q193.85-3.22 192.38-2.54L192.38-2.54Q190.43-1.56 189.11-0.73Q187.79 0.10 186.47 0.78Q185.16 1.46 183.59 1.90Q182.03 2.34 179.69 2.64L179.69 2.64Q175.78 3.13 171.83 3.81Q167.87 4.49 163.96 4.49L163.96 4.49Q163.18 4.49 162.35 4.15Q161.52 3.81 160.45 3.47Q159.38 3.13 158.06 2.78Q156.74 2.44 154.88 2.44L154.88 2.44Q152.93 2.44 151.76 1.86Q150.59 1.27 149.66 0.49Q148.73-0.29 147.75-1.22Q146.78-2.15 145.21-2.83L145.21-2.83Q139.36-5.47 135.25-9.18Q131.15-12.89 128.22-17.48Q125.29-22.07 123.34-27.44Q121.39-32.81 120.02-38.67L120.02-38.67Q118.95-42.77 118.95-46.88L118.95-46.88Q118.95-52.25 121.48-56.84L121.48-56.84Q120.51-59.57 120.51-62.11L120.51-62.11Q120.51-63.96 121.58-67.63Q122.66-71.29 124.37-75Q126.07-78.71 128.08-81.69Q130.08-84.67 131.84-85.35L131.84-85.35Q133.20-85.84 133.74-86.18Q134.28-86.52 134.28-88.09L134.28-88.09Q134.28-89.26 135.21-90.04Q136.13-90.82 137.45-91.31Q138.77-91.80 140.09-92.19Q141.41-92.58 142.29-92.97L142.29-92.97Q145.90-94.73 149.17-95.95Q152.44-97.17 155.71-98.00Q158.98-98.83 162.50-99.22Q166.02-99.61 170.02-99.61L170.02-99.61Q172.17-99.61 174.22-99.02Q176.27-98.44 178.17-97.51Q180.08-96.58 181.93-95.46Q183.79-94.34 185.55-93.26L185.55-93.26L185.45-93.26Q186.91-93.07 188.23-92.43Q189.55-91.80 191.02-91.60L191.02-91.60Q192.38-89.94 194.58-88.43Q196.78-86.91 198.88-85.25Q200.98-83.59 202.49-81.69Q204.00-79.79 204.00-77.34L204.00-77.34Q204.00-76.95 203.96-76.56Q203.91-76.17 203.81-75.68L203.81-75.68L204.20-76.17Q204.59-75.88 204.93-75.20Q205.27-74.51 205.57-73.68Q205.86-72.85 206.05-72.02Q206.25-71.19 206.35-70.70L206.35-70.70Q207.13-69.43 208.45-68.65Q209.77-67.87 210.55-66.50L210.55-66.50Q209.57-65.53 209.57-63.96L209.57-63.96Q209.57-62.30 210.25-60.69Q210.94-59.08 210.94-57.42L210.94-57.42Q210.94-55.47 210.74-53.66Q210.55-51.86 210.55-49.90L210.55-49.90Q210.55-48.44 209.42-47.66Q208.30-46.88 206.98-46.29Q205.66-45.70 204.59-45.12Q203.52-44.53 203.52-43.46L203.52-43.46Q203.52-42.68 202.59-42.72Q201.66-42.77 201.07-42.77L201.07-42.77Q196.78-42.77 192.53-43.85Q188.28-44.92 184.08-44.92L184.08-44.92Q179.49-44.92 175-44.29Q170.51-43.65 165.92-43.65L165.92-43.65Q162.50-43.65 159.13-43.85Q155.76-44.04 152.34-44.04L152.34-44.04Q151.46-44.04 149.02-43.70Q146.58-43.36 143.90-42.82Q141.21-42.29 138.77-41.55Q136.33-40.82 135.35-40.14L135.35-40.14Q135.25-39.65 135.25-38.77L135.25-38.77Q135.25-34.18 137.94-29.30Q140.63-24.41 145.02-20.41Q149.41-16.41 154.88-13.77Q160.35-11.13 165.92-11.13L165.92-11.13Q169.14-11.13 172.31-10.89Q175.49-10.64 178.52-9.47L178.52-9.47Q181.15-10.74 183.35-12.40Q185.55-14.06 187.60-15.92Q189.65-17.77 191.60-19.73Q193.55-21.68 195.61-23.63L195.61-23.63Q196.00-24.02 197.51-24.37Q199.02-24.71 200.78-24.95Q202.54-25.20 204.15-25.34Q205.76-25.49 206.35-25.49L206.35-25.49Q208.59-25.49 210.55-24.80L210.55-24.80Q211.13-22.56 211.13-20.41ZM196.48-60.06L196.48-60.06Q196.48-61.52 196.00-62.89Q195.51-64.26 195.21-65.72L195.21-65.72Q194.73-68.46 194.73-71.04Q194.73-73.63 193.95-76.27L193.95-76.27L193.85-76.27Q193.85-75.68 193.46-75.15Q193.07-74.61 192.38-74.61L192.38-74.61Q191.21-74.61 190.14-75.20Q189.06-75.78 188.28-76.66L188.28-76.66Q184.57-78.32 181.59-79.79Q178.61-81.25 175.63-82.37Q172.66-83.50 169.29-84.13Q165.92-84.77 161.52-84.77L161.52-84.77Q161.13-84.77 160.79-84.72Q160.45-84.67 160.16-84.38L160.16-84.38L160.64-83.30L159.86-83.11Q157.23-82.62 155.52-82.18Q153.81-81.74 152.44-80.96Q151.07-80.18 149.76-79.05Q148.44-77.93 146.39-76.17L146.39-76.17Q145.41-75.29 144.29-74.85Q143.16-74.41 142.04-74.07Q140.92-73.73 139.89-73.34Q138.87-72.95 138.18-72.07L138.18-72.07Q137.50-69.63 136.18-67.33Q134.86-65.04 134.86-62.50L134.86-62.50Q134.86-61.04 136.08-59.91Q137.30-58.79 139.21-58.01Q141.11-57.23 143.41-56.64Q145.70-56.05 147.95-55.76Q150.20-55.47 152.10-55.32Q154.00-55.18 155.08-55.18L155.08-55.18Q158.79-55.18 162.40-55.91Q166.02-56.64 169.73-56.64L169.73-56.64Q173.54-56.64 177.34-56.30Q181.15-55.96 184.96-55.96L184.96-55.96Q185.94-55.96 187.89-56.05Q189.84-56.15 191.75-56.59Q193.65-57.03 195.07-57.86Q196.48-58.69 196.48-60.06ZM341.99-2.54L341.99-2.54Q341.99-1.17 341.31-0.29Q340.63 0.59 339.60 1.07Q338.57 1.56 337.35 1.71Q336.13 1.86 335.06 1.86L335.06 1.86Q333.59 1.86 332.13 1.66Q330.66 1.46 329.20 1.27L329.20 1.27Q327.25 1.95 324.56 2.69Q321.88 3.42 319.73 3.42L319.73 3.42Q319.14 3.42 318.60 3.22Q318.07 3.03 317.58 3.03L317.58 3.03Q315.92 3.03 314.21 3.66Q312.50 4.30 310.84 4.30L310.84 4.30Q308.01 4.30 305.42 3.56Q302.83 2.83 300 2.64L300 2.64Q295.41 2.25 292.92-0.93Q290.43-4.10 290.23-8.50L290.23-8.50Q293.26-10.35 296.63-11.04Q300-11.72 303.42-11.72L303.42-11.72Q305.37-11.72 307.28-11.62Q309.18-11.52 311.13-11.33L311.13-11.33Q310.84-18.65 309.86-25.98Q308.89-33.30 308.89-40.72L308.89-40.72Q308.89-43.26 309.03-45.80Q309.18-48.34 309.67-50.88L309.67-50.88Q310.16-53.42 310.94-55.91Q311.72-58.40 311.72-60.94L311.72-60.94Q311.72-62.60 311.23-64.01Q310.74-65.43 309.96-66.89L309.96-66.89Q309.28-68.07 309.08-69.53Q308.89-71.00 308.59-72.51Q308.30-74.02 307.71-75.49Q307.13-76.95 305.81-78.13Q304.49-79.30 302.15-79.98Q299.80-80.66 296.00-80.66L296.00-80.66Q294.82-80.66 292.53-80.32Q290.23-79.98 287.84-79.44Q285.45-78.91 283.35-78.17Q281.25-77.44 280.47-76.66L280.47-76.66Q279.98-76.17 279.25-75.29Q278.52-74.41 277.69-73.49Q276.86-72.56 276.07-71.83Q275.29-71.09 274.71-71.00L274.71-71.00Q273.24-70.70 272.51-70.51Q271.78-70.31 271.34-69.92Q270.90-69.53 270.61-68.80Q270.31-68.07 269.63-66.70L269.63-66.70Q269.43-66.31 268.85-65.19Q268.26-64.06 267.68-64.06L267.68-64.06Q267.19-64.06 266.99-64.45Q266.80-64.84 266.31-64.84L266.31-64.84Q266.11-64.84 265.77-64.60Q265.43-64.36 265.23-64.16L265.23-64.16L265.23-61.43Q264.55-60.64 264.01-60.60Q263.48-60.55 263.13-60.45Q262.79-60.35 262.65-59.96Q262.50-59.57 262.50-58.11L262.50-58.11Q262.50-57.03 262.01-56.15Q261.52-55.27 260.99-54.39Q260.45-53.52 259.96-52.59Q259.47-51.66 259.47-50.49L259.47-50.49Q259.47-48.54 260.01-46.73Q260.55-44.92 260.55-42.97L260.55-42.97Q260.55-41.70 260.16-40.82Q259.77-39.94 259.23-39.21Q258.69-38.48 258.30-37.79Q257.91-37.11 257.91-36.13L257.91-36.13Q257.91-34.77 258.45-33.64Q258.98-32.52 259.57-31.35Q260.16-30.18 260.69-28.91Q261.23-27.64 261.23-26.17L261.23-26.17Q261.23-24.51 260.84-22.80Q260.45-21.09 260.45-19.34L260.45-19.34Q260.45-17.29 261.08-16.16Q261.72-15.04 262.74-14.45Q263.77-13.87 265.14-13.57Q266.50-13.28 267.92-12.74Q269.34-12.21 270.80-11.28Q272.27-10.35 273.54-8.50L273.54-8.50L274.12-8.59Q275.78-8.59 276.56-7.23Q277.34-5.86 277.34-4.39L277.34-4.39Q277.34-3.03 276.76-2.00Q276.17-0.98 276.17 0.68L276.17 0.68Q276.17 1.86 273.63 2.64Q271.09 3.42 267.87 3.86Q264.65 4.30 261.67 4.44Q258.69 4.59 257.71 4.59L257.71 4.59Q256.54 4.59 254.15 4.54Q251.76 4.49 248.78 4.35Q245.80 4.20 242.58 3.91Q239.36 3.61 236.62 3.08Q233.89 2.54 231.98 1.71Q230.08 0.88 229.59-0.29L229.59-0.29Q229.10-1.46 228.61-2.88Q228.13-4.30 228.13-5.66L228.13-5.66Q228.13-7.13 228.86-8.30Q229.59-9.47 230.66-10.45L230.66-10.45Q232.13-11.82 233.89-12.06Q235.64-12.30 237.35-12.35Q239.06-12.40 240.67-12.65Q242.29-12.89 243.51-14.16Q244.73-15.43 245.46-18.16Q246.19-20.90 246.19-25.88L246.19-25.88Q246.19-27.15 246.00-28.47Q245.80-29.79 245.51-31.01Q245.21-32.23 245.02-33.20Q244.82-34.18 244.82-34.67L244.82-34.67Q244.82-35.25 245.17-35.94Q245.51-36.62 245.95-37.35Q246.39-38.09 246.73-38.96Q247.07-39.84 247.07-40.92L247.07-40.92Q247.07-42.58 246.44-44.14Q245.80-45.70 245.80-47.36L245.80-47.36Q245.80-48.73 246.29-50Q246.78-51.27 246.78-52.64L246.78-52.64Q246.78-53.71 246.19-54.69Q245.61-55.66 245.61-56.84L245.61-56.84Q245.61-57.91 246.00-59.03Q246.39-60.16 246.39-61.33L246.39-61.33Q246.39-63.87 245.80-66.55Q245.21-69.24 244.73-71.78L244.73-71.78Q244.14-74.80 242.53-76.32Q240.92-77.83 238.87-78.61Q236.82-79.39 234.57-79.88Q232.32-80.37 230.47-81.40Q228.61-82.42 227.39-84.33Q226.17-86.23 226.17-89.94L226.17-89.94Q226.17-92.48 227.69-93.85Q229.20-95.21 231.35-95.85Q233.50-96.48 235.89-96.58Q238.28-96.68 240.04-96.68L240.04-96.68Q242.87-96.68 245.65-95.85Q248.44-95.02 251.27-94.82L251.27-94.82Q252.54-94.73 253.71-93.99Q254.88-93.26 255.86-92.24Q256.84-91.21 257.42-89.94Q258.01-88.67 258.11-87.40L258.11-87.40Q258.11-86.82 258.50-85.30Q258.89-83.79 259.42-82.23Q259.96-80.66 260.60-79.44Q261.23-78.22 261.91-78.22L261.91-78.22Q262.50-78.71 262.74-79.35Q262.99-79.98 263.18-80.57L263.18-80.57Q263.28-81.15 264.50-82.13Q265.72-83.11 267.24-84.18Q268.75-85.25 270.17-86.23Q271.58-87.21 272.17-87.79L272.17-87.79Q272.75-88.48 273.10-89.21Q273.44-89.94 273.78-90.58Q274.12-91.21 274.66-91.60Q275.20-91.99 276.37-91.99L276.37-91.99L276.86-91.99Q277.93-91.99 278.91-92.92Q279.88-93.85 281.45-95.02Q283.01-96.19 285.55-97.12Q288.09-98.05 292.29-98.05L292.29-98.05Q295.90-98.05 299.51-97.90Q303.13-97.75 306.40-96.88Q309.67-96.00 312.55-94.14Q315.43-92.29 317.58-88.96L317.58-88.96Q319.24-86.33 320.31-85.06Q321.39-83.79 322.07-82.62Q322.75-81.45 323.00-79.79Q323.24-78.13 323.24-74.80L323.24-74.80Q323.24-73.44 323.73-72.27Q324.22-71.09 324.85-69.87Q325.49-68.65 325.98-67.29Q326.46-65.92 326.46-64.16L326.46-64.16Q326.46-60.74 326.07-57.37Q325.68-54.00 325.68-50.59L325.68-50.59Q325.68-48.14 324.76-45.80Q323.83-43.46 323.83-41.02L323.83-41.02Q323.83-39.84 324.41-38.77Q325-37.70 325-36.33L325-36.33Q325-34.67 324.61-32.96Q324.22-31.25 324.22-29.59L324.22-29.59Q324.22-28.03 324.95-26.86Q325.68-25.68 325.68-24.22L325.68-24.22Q325.68-23.44 325.34-22.95Q325-22.46 324.56-21.97Q324.12-21.48 323.78-20.95Q323.44-20.41 323.44-19.63L323.44-19.63Q323.44-18.16 324.17-16.65Q324.90-15.14 326.07-13.92Q327.25-12.70 328.71-11.96Q330.18-11.23 331.64-11.23L331.64-11.23Q332.91-11.23 333.84-11.77Q334.77-12.30 335.84-12.30L335.84-12.30Q337.21-12.30 338.33-11.18Q339.45-10.06 340.28-8.50Q341.11-6.93 341.55-5.27Q341.99-3.61 341.99-2.54ZM320.90-39.16L320.90-39.36Q320.90-40.33 320.26-41.26Q319.63-42.19 318.55-42.19L318.55-42.19Q317.48-42.19 317.09-41.16Q316.70-40.14 316.70-39.26L316.70-39.26Q316.70-38.18 317.09-37.21Q317.48-36.23 318.65-36.23L318.65-36.23Q319.63-36.23 320.17-36.87Q320.70-37.50 320.90-39.16L320.90-39.16ZM322.56-20.61L322.56-20.61Q322.56-21.29 322.02-21.73Q321.48-22.17 320.90-22.46L320.90-22.46Q320.70-21.88 320.21-21.29Q319.73-20.70 319.24-20.02Q318.75-19.34 318.31-18.65Q317.87-17.97 317.87-17.29L317.87-17.29Q317.87-16.50 318.36-16.11Q318.85-15.72 319.53-15.43L319.53-15.43Q319.63-16.02 320.17-16.60Q320.70-17.19 321.19-17.87Q321.68-18.55 322.12-19.19Q322.56-19.82 322.56-20.61ZM257.62-41.60L257.62-41.60Q257.62-42.29 257.37-43.26Q257.13-44.24 256.69-45.17Q256.25-46.09 255.62-46.73Q254.98-47.36 254.10-47.36L254.10-47.36Q253.03-47.36 252.25-46.73Q251.46-46.09 250.29-46.09L250.29-46.09L249.90-46.09Q249.61-45.02 249.61-44.04L249.61-44.04L249.71-43.46L249.80-43.75Q250.10-42.68 250.98-42.09Q251.86-41.50 252.88-41.06Q253.91-40.63 254.98-40.23Q256.05-39.84 256.84-39.16L256.84-39.16Q257.62-40.04 257.62-41.60ZM465.04-128.32L465.04-128.32Q465.04-127.44 464.60-126.37Q464.16-125.29 463.09-125.29L463.09-125.29Q462.70-125.29 462.35-125.68Q462.01-126.07 461.72-126.56Q461.43-127.05 461.08-127.44Q460.74-127.83 460.35-127.93L460.35-127.93Q460.45-126.07 460.35-125.10Q460.25-124.12 460.06-123.68Q459.86-123.24 459.52-123.19Q459.18-123.14 458.79-123.14L458.79-123.14Q458.01-123.14 457.32-123.05Q456.64-122.95 455.96-122.75L455.96-122.75Q453.71-122.27 452.59-122.12Q451.46-121.97 450.98-121.48Q450.49-121.00 450.39-119.92Q450.29-118.85 450.10-116.50L450.10-116.50Q449.90-114.75 449.80-113.04Q449.71-111.33 449.71-109.57L449.71-109.57Q449.71-104.88 450.15-100.39Q450.59-95.90 450.59-91.21L450.59-91.21Q450.59-88.96 450.24-86.82Q449.90-84.67 449.90-82.42L449.90-82.42Q449.90-80.47 450.73-78.56Q451.56-76.66 451.56-75L451.56-75Q451.56-74.51 451.22-74.07Q450.88-73.63 450.44-73.14Q450-72.66 449.66-72.07Q449.32-71.48 449.32-70.70L449.32-70.70Q449.32-68.65 450.05-66.75Q450.78-64.84 450.78-62.79L450.78-62.79Q450.78-59.67 450.39-56.54Q450-53.42 449.56-50.29Q449.12-47.17 448.73-44.04Q448.34-40.92 448.34-37.79L448.34-37.79Q448.34-35.25 448.68-32.96Q449.02-30.66 449.90-28.42L449.90-28.42Q450.10-27.93 450.29-27.34Q450.49-26.76 450.49-26.27L450.49-26.27Q450.49-25 449.85-24.17Q449.22-23.34 449.22-22.75L449.22-22.75Q449.22-22.27 449.85-21.58Q450.49-20.90 450.68-20.31L450.68-20.31Q451.37-18.07 451.76-15.38Q452.15-12.70 452.15-10.35L452.15-10.35Q452.15-8.30 451.07-6.35Q450-4.39 448.24-2.88Q446.48-1.37 444.29-0.39Q442.09 0.59 439.84 0.59L439.84 0.59Q436.82 0.59 434.72-1.27Q432.62-3.13 431.10-5.81Q429.59-8.50 428.37-11.43Q427.15-14.36 425.98-16.50L425.98-16.50Q425-18.26 424.46-19.87Q423.93-21.48 423.34-23.05Q422.75-24.61 421.88-26.12Q421.00-27.64 419.43-29.10L419.43-29.10Q418.16-30.27 417.48-31.88Q416.80-33.50 416.36-35.30Q415.92-37.11 415.58-38.92Q415.23-40.72 414.84-42.29L414.84-42.29Q413.77-46.09 412.30-49.80Q410.84-53.52 409.47-57.23L409.47-57.23Q408.98-58.40 408.25-59.86Q407.52-61.33 406.74-62.79Q405.96-64.26 405.32-65.63Q404.69-66.99 404.59-68.16L404.59-68.16Q404.20-71.39 402.93-73.97Q401.66-76.56 400.20-78.91Q398.73-81.25 397.36-83.69Q396.00-86.13 395.51-89.16L395.51-89.16Q395.31-90.14 394.82-91.75Q394.34-93.36 393.55-94.97Q392.77-96.58 391.70-97.75Q390.63-98.93 389.45-98.93L389.45-98.93Q388.38-98.93 387.74-97.90Q387.11-96.88 386.72-95.46Q386.33-94.04 386.18-92.63Q386.04-91.21 386.04-90.53L386.04-90.53Q386.04-88.57 386.28-86.62Q386.52-84.67 386.52-82.71L386.52-82.71Q386.52-81.25 385.94-79.88Q385.35-78.52 385.35-77.15L385.35-77.15Q385.35-76.27 385.99-75.68Q386.62-75.10 386.62-74.32L386.62-74.32Q386.62-73.54 386.43-72.80Q386.23-72.07 386.23-71.29L386.23-71.29Q386.23-68.85 386.47-66.50Q386.72-64.16 386.72-61.82L386.72-61.82Q386.72-60.16 386.52-58.45Q386.33-56.74 385.74-55.27Q385.16-53.81 383.98-52.78Q382.81-51.76 380.96-51.46L380.96-51.46Q381.35-50.68 381.98-50.44Q382.62-50.20 383.30-50.10Q383.98-50 384.47-49.80Q384.96-49.61 384.96-48.73L384.96-48.73Q384.96-48.24 384.91-47.90Q384.86-47.56 384.86-47.17L384.86-47.17Q384.86-46.09 385.30-45.41Q385.74-44.73 386.33-44.09Q386.91-43.46 387.35-42.82Q387.79-42.19 387.79-41.21L387.79-41.21Q387.79-40.04 387.50-38.96Q387.21-37.89 387.21-36.82L387.21-36.82Q387.21-34.47 387.79-32.28Q388.38-30.08 388.38-27.73L388.38-27.73Q388.38-26.46 388.13-25.93Q387.89-25.39 387.55-25.10Q387.21-24.80 386.96-24.66Q386.72-24.51 386.72-23.93L386.72-23.93Q386.72-22.95 387.01-22.12Q387.30-21.29 387.30-20.31L387.30-20.31Q387.30-19.73 387.16-19.14Q387.01-18.55 386.52-18.07L386.52-18.07Q386.62-16.89 387.30-16.41Q387.99-15.92 388.92-15.53Q389.84-15.14 390.72-14.70Q391.60-14.26 392.09-13.18L392.09-13.18Q392.48-12.30 392.92-11.57Q393.36-10.84 394.43-10.84L394.43-10.84Q396.09-10.84 397.46-11.57Q398.83-12.30 400.39-12.30L400.39-12.30Q402.93-12.30 403.91-10.30Q404.88-8.30 404.88-6.15L404.88-6.15Q404.88-3.42 403.96-2.29Q403.03-1.17 401.90-0.63Q400.78-0.10 399.85 0.39Q398.93 0.88 398.93 2.25L398.93 2.25Q398.93 2.44 398.97 2.54Q399.02 2.64 399.02 2.83L399.02 2.83Q397.66 1.95 396.14 1.56Q394.63 1.17 392.97 1.17L392.97 1.17Q390.04 1.17 387.16 2.00Q384.28 2.83 381.35 2.83L381.35 2.83Q379.20 2.83 377.15 2.44Q375.10 2.05 372.95 2.05L372.95 2.05Q371.58 2.05 370.26 2.39Q368.95 2.73 367.58 2.73L367.58 2.73Q366.21 2.73 363.96 2.10Q361.72 1.46 359.57 0.44Q357.42-0.59 355.91-1.81Q354.39-3.03 354.39-4.10L354.39-4.10Q354.39-7.03 356.35-9.42Q358.30-11.82 361.23-12.30L361.23-12.30Q362.70-12.60 364.50-12.60Q366.31-12.60 368.07-12.74Q369.82-12.89 371.39-13.43Q372.95-13.96 374.02-15.33L374.02-15.33Q373.63-16.80 373.63-18.65L373.63-18.65Q373.63-22.07 374.51-25.29Q375.39-28.52 375.39-31.93L375.39-31.93Q375.39-33.30 375.10-34.77L375.10-34.77Q373.93-41.50 373.93-48.34L373.93-48.34Q373.93-50.29 374.02-52.29Q374.12-54.30 374.12-56.25L374.12-56.25Q374.12-61.33 373.39-66.31Q372.66-71.29 372.46-76.37L372.46-76.37Q372.27-81.74 372.27-86.96Q372.27-92.19 371.19-97.46L371.19-97.46Q370.90-98.83 370.85-100.10Q370.80-101.37 370.80-102.73L370.80-102.73L370.80-106.25Q370.80-110.35 370.41-112.40Q370.02-114.45 369.04-115.38Q368.07-116.31 366.55-116.55Q365.04-116.80 362.79-117.09L362.79-117.09Q361.52-117.29 360.21-118.36Q358.89-119.43 357.76-120.90Q356.64-122.36 355.91-123.93Q355.18-125.49 355.18-126.76L355.18-126.76L355.18-128.91Q355.18-132.81 356.35-134.91Q357.52-137.01 359.57-138.04Q361.62-139.06 364.40-139.26Q367.19-139.45 370.41-139.45L370.41-139.45Q373.63-139.45 377.10-139.21Q380.57-138.96 383.79-138.13Q387.01-137.30 389.65-135.69Q392.29-134.08 393.95-131.35L393.95-131.35Q395.02-129.49 395.80-127.49Q396.58-125.49 397.27-123.44Q397.95-121.39 398.63-119.38Q399.32-117.38 400.39-115.53L400.39-115.53Q400.88-114.65 401.12-113.62Q401.37-112.60 401.61-111.57Q401.86-110.55 402.15-109.62Q402.44-108.69 403.03-107.81L403.03-107.81Q403.71-107.03 404.64-106.20Q405.57-105.37 406.05-104.39L406.05-104.39Q406.93-102.44 407.28-100.34Q407.62-98.24 407.91-96.14Q408.20-94.04 408.54-91.94Q408.89-89.84 409.77-87.89L409.77-87.89Q410.35-86.72 410.89-85.94Q411.43-85.16 411.87-84.42Q412.30-83.69 412.65-82.76Q412.99-81.84 413.18-80.37L413.18-80.37Q413.38-78.22 413.57-76.12Q413.77-74.02 414.55-71.97L414.55-71.97Q415.14-70.51 416.11-69.24Q417.09-67.97 418.12-66.75Q419.14-65.53 420.12-64.26Q421.09-62.99 421.58-61.43L421.58-61.43Q422.56-58.50 423.44-55.96Q424.32-53.42 426.86-51.46L426.86-51.46Q426.27-50.59 425.83-49.56Q425.39-48.54 425.39-47.46L425.39-47.46Q425.39-45.41 426.42-43.41Q427.44-41.41 428.22-39.55L428.22-39.55Q428.81-38.09 429.44-37.01Q430.08-35.94 431.64-35.16L431.64-35.16Q433.01-34.47 433.50-33.94Q433.98-33.40 434.08-32.76Q434.18-32.13 434.13-31.30Q434.08-30.47 434.38-29.20L434.38-29.20Q434.47-28.61 434.77-27.78Q435.06-26.95 435.50-26.12Q435.94-25.29 436.52-24.71Q437.11-24.12 437.79-24.12L437.79-24.12Q438.38-24.12 438.67-24.56Q438.96-25 439.16-25.59Q439.36-26.17 439.40-26.81Q439.45-27.44 439.45-27.83L439.45-27.83Q439.45-29.20 440.19-30.32Q440.92-31.45 440.92-32.91L440.92-32.91Q440.92-34.57 440.19-35.94Q439.45-37.30 439.45-38.96L439.45-38.96Q439.45-40.33 439.99-41.46Q440.53-42.58 440.53-43.95L440.53-43.95Q440.53-44.92 439.79-45.61Q439.06-46.29 439.06-46.97L439.06-46.97Q439.06-47.27 439.36-47.31Q439.65-47.36 439.94-47.46Q440.23-47.56 440.53-47.80Q440.82-48.05 440.82-48.73L440.82-48.73Q440.82-51.07 440.28-53.27Q439.75-55.47 439.06-57.71Q438.38-59.96 437.84-62.26Q437.30-64.55 437.30-66.89L437.30-66.89Q437.30-69.24 438.28-71.00Q439.26-72.75 439.26-73.34L439.26-73.34Q439.26-74.61 438.62-75.63Q437.99-76.66 437.99-77.93L437.99-77.93Q437.99-79.39 438.72-80.71Q439.45-82.03 439.45-83.50L439.45-83.50Q439.45-84.38 439.06-85.21Q438.67-86.04 438.18-86.91Q437.70-87.79 437.26-88.72Q436.82-89.65 436.62-90.53L436.62-90.53Q436.33-91.99 436.28-93.55Q436.23-95.12 436.23-96.68L436.23-96.68L436.23-100.88Q436.23-103.52 435.99-106.01Q435.74-108.50 435.06-111.04L435.06-111.04Q434.47-113.38 434.38-115.33Q434.28-117.29 433.79-118.75Q433.30-120.21 431.93-121.14Q430.57-122.07 427.44-122.27L427.44-122.27Q425.20-122.46 422.95-122.51Q420.70-122.56 418.46-123.14L418.46-123.14Q416.99-123.54 416.26-124.80Q415.53-126.07 415.23-127.64Q414.94-129.20 414.94-130.81Q414.94-132.42 414.94-133.40L414.94-133.40Q414.94-135.25 416.75-136.47Q418.55-137.70 421.04-138.48Q423.54-139.26 426.07-139.60Q428.61-139.94 429.98-139.94L429.98-139.94Q430.86-139.94 433.11-139.84Q435.35-139.75 438.09-139.45Q440.82-139.16 443.75-138.72Q446.68-138.28 449.12-137.55Q451.56-136.82 453.13-135.84Q454.69-134.86 454.69-133.59L454.69-133.59Q455.57-134.57 456.64-135.25Q457.71-135.94 459.08-135.94L459.08-135.94Q460.35-135.94 461.47-135.21Q462.60-134.47 463.38-133.30Q464.16-132.13 464.60-130.81Q465.04-129.49 465.04-128.32ZM372.75-6.64L372.75-6.64Q372.75-7.52 372.27-7.96Q371.78-8.40 371.04-8.59Q370.31-8.79 369.58-9.03Q368.85-9.28 368.46-9.77L368.46-9.77Q368.36-9.47 368.31-9.23Q368.26-8.98 368.26-8.69L368.26-8.69Q368.26-7.81 368.75-7.37Q369.24-6.93 369.97-6.74Q370.70-6.54 371.39-6.30Q372.07-6.05 372.56-5.57L372.56-5.57Q372.66-5.86 372.71-6.10Q372.75-6.35 372.75-6.64ZM580.37-42.77L580.37-42.77Q580.37-41.41 579.93-40.19Q579.49-38.96 578.96-38.09Q578.42-37.21 577.98-36.62Q577.54-36.04 577.54-35.94L577.54-35.94Q577.54-34.96 578.17-33.89Q578.81-32.81 578.81-31.54L578.81-31.54Q578.81-30.96 578.37-30.76Q577.93-30.57 577.44-30.57L577.44-30.57Q576.56-30.57 575.98-30.76L575.98-30.76Q576.07-28.91 576.32-27.15Q576.56-25.39 576.56-23.54L576.56-23.54Q576.56-20.70 576.03-19.87Q575.49-19.04 574.90-18.85Q574.32-18.65 573.78-18.41Q573.24-18.16 573.24-16.60L573.24-16.60Q573.24-15.72 572.02-14.36Q570.80-12.99 569.09-11.62Q567.38-10.25 565.58-9.28Q563.77-8.30 562.70-8.30L562.70-8.30Q562.40-8.30 562.01-8.50L562.01-8.50Q562.01-7.71 562.11-6.84Q562.21-5.96 562.21-5.18L562.21-5.18Q562.21-3.91 561.43-3.47Q560.64-3.03 559.67-2.64L559.67-2.64Q558.20-1.95 556.64-0.63Q555.08 0.68 553.42 2.05Q551.76 3.42 550.05 4.44Q548.34 5.47 546.48 5.47L546.48 5.47Q544.92 5.47 543.60 4.69Q542.29 3.91 540.53 3.91L540.53 3.91Q538.96 3.91 537.89 4.35Q536.82 4.79 535.89 5.32Q534.96 5.86 533.98 6.30Q533.01 6.74 531.74 6.74L531.74 6.74Q529.20 6.74 526.66 5.42Q524.12 4.10 521.78 3.32L521.78 3.32Q520.41 2.83 518.85 2.59Q517.29 2.34 515.82 2.05Q514.36 1.76 513.04 1.12Q511.72 0.49 510.74-0.68L510.74-0.68Q508.69-3.22 505.96-4.88Q503.22-6.54 500.39-8.01Q497.56-9.47 494.92-11.08Q492.29-12.70 490.33-15.33L490.33-15.33Q488.87-17.38 487.01-19.78Q485.16-22.17 483.54-24.80Q481.93-27.44 480.86-30.18Q479.79-32.91 479.79-35.55L479.79-35.55Q479.79-37.50 480.18-39.36Q480.57-41.21 481.01-43.12Q481.45-45.02 481.84-46.88Q482.23-48.73 482.23-50.68L482.23-50.68L482.23-51.76Q482.23-52.15 481.93-52.64Q481.64-53.13 481.30-53.56Q480.96-54.00 480.62-54.35Q480.27-54.69 480.18-54.69L480.18-54.69Q479.98-54.69 479.98-54.59L479.98-54.59Q480.08-55.47 480.52-57.28Q480.96-59.08 481.54-60.99Q482.13-62.89 482.71-64.50Q483.30-66.11 483.79-66.60L483.79-66.60Q484.38-67.09 484.91-67.63Q485.45-68.16 485.45-69.04L485.45-69.04Q485.45-69.92 485.35-70.75Q485.25-71.58 485.25-72.46L485.25-72.46Q485.25-73.63 485.55-73.88Q485.84-74.12 486.33-74.12Q486.82-74.12 487.30-74.27Q487.79-74.41 488.28-75.29L488.28-75.29Q489.16-77.05 489.99-78.56Q490.82-80.08 491.80-81.35Q492.77-82.62 494.04-83.69Q495.31-84.77 497.17-85.74L497.17-85.74Q498.73-86.62 500.24-87.89Q501.76-89.16 503.32-90.43Q504.88-91.70 506.49-92.58Q508.11-93.46 509.96-93.46L509.96-93.46Q512.60-93.46 515.09-94.38Q517.58-95.31 520.12-95.80L520.12-95.80Q524.12-96.39 528.08-96.92Q532.03-97.46 536.13-97.46L536.13-97.46Q538.38-97.46 541.60-96.73Q544.82-96.00 548.19-94.82Q551.56-93.65 554.54-92.19Q557.52-90.72 559.28-89.26L559.28-89.26L559.28-88.96Q559.28-87.60 558.79-86.18Q558.30-84.77 558.30-83.40L558.30-83.40Q558.30-83.20 558.30-83.01Q558.30-82.81 558.50-82.81L558.50-82.81Q560.16-82.81 561.67-83.25Q563.18-83.69 564.84-83.69L564.84-83.69Q565.04-82.03 566.31-81.45Q567.58-80.86 568.85-80.37L568.85-80.37Q570.02-79.79 571.04-78.27Q572.07-76.76 572.95-74.85Q573.83-72.95 574.66-71.09Q575.49-69.24 576.27-68.07L576.27-68.07Q577.05-66.89 577.69-65.28Q578.32-63.67 578.76-61.91Q579.20-60.16 579.39-58.45Q579.59-56.74 579.59-55.27L579.59-55.27Q579.59-53.32 578.86-52.00Q578.13-50.68 577.25-49.66Q576.37-48.63 575.63-47.71Q574.90-46.78 574.90-45.61L574.90-45.61Q574.90-44.92 575.20-44.34Q575.49-43.75 575.98-43.26L575.98-43.26Q576.17-43.36 576.81-43.46Q577.44-43.55 577.44-44.04L577.44-44.04L577.44-44.14Q577.44-44.92 576.81-45.61Q576.17-46.29 576.17-47.27L576.17-47.27Q576.17-47.46 576.37-47.90Q576.56-48.34 576.86-48.34L576.86-48.34Q577.44-48.34 578.03-47.61Q578.61-46.88 579.15-46.04Q579.69-45.21 579.98-44.63Q580.27-44.04 580.27-44.24L580.27-44.24L580.18-44.34Q580.27-43.85 580.32-43.51Q580.37-43.16 580.37-42.77ZM570.61-41.99L570.61-41.99Q570.61-43.55 569.43-43.90Q568.26-44.24 566.80-44.34Q565.33-44.43 563.92-44.63Q562.50-44.82 562.01-46.09L562.01-46.09L562.01-47.07Q562.01-49.22 561.47-52.10Q560.94-54.98 560.16-57.96Q559.38-60.94 558.50-63.82Q557.62-66.70 556.84-68.95Q556.05-71.19 555.57-72.56Q555.08-73.93 555.08-73.93L555.08-73.93Q554.30-73.73 553.81-73.73L553.81-73.73Q552.15-73.73 550.93-74.41Q549.71-75.10 548.19-75.88Q546.68-76.66 544.48-77.34Q542.29-78.03 538.67-78.03L538.67-78.03Q534.67-78.03 530.76-78.56Q526.86-79.10 522.85-79.10L522.85-79.10Q517.38-79.10 512.60-76.61Q507.81-74.12 504.20-70.07Q500.59-66.02 498.54-60.94Q496.48-55.86 496.48-50.68L496.48-50.68Q496.48-48.54 496.58-45.65Q496.68-42.77 497.07-39.89Q497.46-37.01 498.34-34.52Q499.22-32.03 500.78-30.76L500.78-30.76L500.78-28.03Q501.17-27.64 501.81-27.59Q502.44-27.54 503.08-27.54Q503.71-27.54 504.20-27.39Q504.69-27.25 504.98-26.56L504.98-26.56Q506.25-22.95 508.30-21.04Q510.35-19.14 512.70-17.82Q515.04-16.50 517.38-15.19Q519.73-13.87 521.68-11.33L521.68-11.33Q522.46-11.43 523.34-11.47Q524.22-11.52 525-11.52L525-11.52Q528.13-11.52 531.10-11.08Q534.08-10.64 537.11-10.64L537.11-10.64Q540.33-10.64 542.92-12.30Q545.51-13.96 547.36-16.50L547.36-16.50Q548.54-18.16 549.51-19.34Q550.49-20.51 551.51-21.53Q552.54-22.56 553.76-23.49Q554.98-24.41 556.64-25.59L556.64-25.59Q557.23-25.98 558.06-26.56Q558.89-27.15 559.72-27.88Q560.55-28.61 561.13-29.35Q561.72-30.08 561.72-30.76L561.72-30.76Q561.72-31.64 561.47-32.52Q561.23-33.40 561.23-34.28L561.23-34.28Q561.23-35.25 561.52-36.62Q561.82-37.99 562.45-39.26Q563.09-40.53 564.01-41.36Q564.94-42.19 566.31-42.19L566.31-42.19Q567.38-42.19 568.46-41.70Q569.53-41.21 570.41-40.53L570.41-40.53Q570.61-41.50 570.61-41.99ZM697.07-42.77L697.07-42.77Q697.07-41.41 696.63-40.19Q696.19-38.96 695.65-38.09Q695.12-37.21 694.68-36.62Q694.24-36.04 694.24-35.94L694.24-35.94Q694.24-34.96 694.87-33.89Q695.51-32.81 695.51-31.54L695.51-31.54Q695.51-30.96 695.07-30.76Q694.63-30.57 694.14-30.57L694.14-30.57Q693.26-30.57 692.68-30.76L692.68-30.76Q692.77-28.91 693.02-27.15Q693.26-25.39 693.26-23.54L693.26-23.54Q693.26-20.70 692.72-19.87Q692.19-19.04 691.60-18.85Q691.02-18.65 690.48-18.41Q689.94-18.16 689.94-16.60L689.94-16.60Q689.94-15.72 688.72-14.36Q687.50-12.99 685.79-11.62Q684.08-10.25 682.28-9.28Q680.47-8.30 679.39-8.30L679.39-8.30Q679.10-8.30 678.71-8.50L678.71-8.50Q678.71-7.71 678.81-6.84Q678.91-5.96 678.91-5.18L678.91-5.18Q678.91-3.91 678.13-3.47Q677.34-3.03 676.37-2.64L676.37-2.64Q674.90-1.95 673.34-0.63Q671.78 0.68 670.12 2.05Q668.46 3.42 666.75 4.44Q665.04 5.47 663.18 5.47L663.18 5.47Q661.62 5.47 660.30 4.69Q658.98 3.91 657.23 3.91L657.23 3.91Q655.66 3.91 654.59 4.35Q653.52 4.79 652.59 5.32Q651.66 5.86 650.68 6.30Q649.71 6.74 648.44 6.74L648.44 6.74Q645.90 6.74 643.36 5.42Q640.82 4.10 638.48 3.32L638.48 3.32Q637.11 2.83 635.55 2.59Q633.98 2.34 632.52 2.05Q631.05 1.76 629.74 1.12Q628.42 0.49 627.44-0.68L627.44-0.68Q625.39-3.22 622.66-4.88Q619.92-6.54 617.09-8.01Q614.26-9.47 611.62-11.08Q608.98-12.70 607.03-15.33L607.03-15.33Q605.57-17.38 603.71-19.78Q601.86-22.17 600.24-24.80Q598.63-27.44 597.56-30.18Q596.48-32.91 596.48-35.55L596.48-35.55Q596.48-37.50 596.88-39.36Q597.27-41.21 597.71-43.12Q598.14-45.02 598.54-46.88Q598.93-48.73 598.93-50.68L598.93-50.68L598.93-51.76Q598.93-52.15 598.63-52.64Q598.34-53.13 598.00-53.56Q597.66-54.00 597.31-54.35Q596.97-54.69 596.88-54.69L596.88-54.69Q596.68-54.69 596.68-54.59L596.68-54.59Q596.78-55.47 597.22-57.28Q597.66-59.08 598.24-60.99Q598.83-62.89 599.41-64.50Q600-66.11 600.49-66.60L600.49-66.60Q601.07-67.09 601.61-67.63Q602.15-68.16 602.15-69.04L602.15-69.04Q602.15-69.92 602.05-70.75Q601.95-71.58 601.95-72.46L601.95-72.46Q601.95-73.63 602.25-73.88Q602.54-74.12 603.03-74.12Q603.52-74.12 604.00-74.27Q604.49-74.41 604.98-75.29L604.98-75.29Q605.86-77.05 606.69-78.56Q607.52-80.08 608.50-81.35Q609.47-82.62 610.74-83.69Q612.01-84.77 613.87-85.74L613.87-85.74Q615.43-86.62 616.94-87.89Q618.46-89.16 620.02-90.43Q621.58-91.70 623.19-92.58Q624.80-93.46 626.66-93.46L626.66-93.46Q629.30-93.46 631.79-94.38Q634.28-95.31 636.82-95.80L636.82-95.80Q640.82-96.39 644.78-96.92Q648.73-97.46 652.83-97.46L652.83-97.46Q655.08-97.46 658.30-96.73Q661.52-96.00 664.89-94.82Q668.26-93.65 671.24-92.19Q674.22-90.72 675.98-89.26L675.98-89.26L675.98-88.96Q675.98-87.60 675.49-86.18Q675-84.77 675-83.40L675-83.40Q675-83.20 675-83.01Q675-82.81 675.20-82.81L675.20-82.81Q676.86-82.81 678.37-83.25Q679.88-83.69 681.54-83.69L681.54-83.69Q681.74-82.03 683.01-81.45Q684.28-80.86 685.55-80.37L685.55-80.37Q686.72-79.79 687.74-78.27Q688.77-76.76 689.65-74.85Q690.53-72.95 691.36-71.09Q692.19-69.24 692.97-68.07L692.97-68.07Q693.75-66.89 694.38-65.28Q695.02-63.67 695.46-61.91Q695.90-60.16 696.09-58.45Q696.29-56.74 696.29-55.27L696.29-55.27Q696.29-53.32 695.56-52.00Q694.82-50.68 693.95-49.66Q693.07-48.63 692.33-47.71Q691.60-46.78 691.60-45.61L691.60-45.61Q691.60-44.92 691.89-44.34Q692.19-43.75 692.68-43.26L692.68-43.26Q692.87-43.36 693.51-43.46Q694.14-43.55 694.14-44.04L694.14-44.04L694.14-44.14Q694.14-44.92 693.51-45.61Q692.87-46.29 692.87-47.27L692.87-47.27Q692.87-47.46 693.07-47.90Q693.26-48.34 693.55-48.34L693.55-48.34Q694.14-48.34 694.73-47.61Q695.31-46.88 695.85-46.04Q696.39-45.21 696.68-44.63Q696.97-44.04 696.97-44.24L696.97-44.24L696.88-44.34Q696.97-43.85 697.02-43.51Q697.07-43.16 697.07-42.77ZM687.30-41.99L687.30-41.99Q687.30-43.55 686.13-43.90Q684.96-44.24 683.50-44.34Q682.03-44.43 680.62-44.63Q679.20-44.82 678.71-46.09L678.71-46.09L678.71-47.07Q678.71-49.22 678.17-52.10Q677.64-54.98 676.86-57.96Q676.07-60.94 675.20-63.82Q674.32-66.70 673.54-68.95Q672.75-71.19 672.27-72.56Q671.78-73.93 671.78-73.93L671.78-73.93Q671.00-73.73 670.51-73.73L670.51-73.73Q668.85-73.73 667.63-74.41Q666.41-75.10 664.89-75.88Q663.38-76.66 661.18-77.34Q658.98-78.03 655.37-78.03L655.37-78.03Q651.37-78.03 647.46-78.56Q643.55-79.10 639.55-79.10L639.55-79.10Q634.08-79.10 629.30-76.61Q624.51-74.12 620.90-70.07Q617.29-66.02 615.23-60.94Q613.18-55.86 613.18-50.68L613.18-50.68Q613.18-48.54 613.28-45.65Q613.38-42.77 613.77-39.89Q614.16-37.01 615.04-34.52Q615.92-32.03 617.48-30.76L617.48-30.76L617.48-28.03Q617.87-27.64 618.51-27.59Q619.14-27.54 619.78-27.54Q620.41-27.54 620.90-27.39Q621.39-27.25 621.68-26.56L621.68-26.56Q622.95-22.95 625-21.04Q627.05-19.14 629.39-17.82Q631.74-16.50 634.08-15.19Q636.43-13.87 638.38-11.33L638.38-11.33Q639.16-11.43 640.04-11.47Q640.92-11.52 641.70-11.52L641.70-11.52Q644.82-11.52 647.80-11.08Q650.78-10.64 653.81-10.64L653.81-10.64Q657.03-10.64 659.62-12.30Q662.21-13.96 664.06-16.50L664.06-16.50Q665.23-18.16 666.21-19.34Q667.19-20.51 668.21-21.53Q669.24-22.56 670.46-23.49Q671.68-24.41 673.34-25.59L673.34-25.59Q673.93-25.98 674.76-26.56Q675.59-27.15 676.42-27.88Q677.25-28.61 677.83-29.35Q678.42-30.08 678.42-30.76L678.42-30.76Q678.42-31.64 678.17-32.52Q677.93-33.40 677.93-34.28L677.93-34.28Q677.93-35.25 678.22-36.62Q678.52-37.99 679.15-39.26Q679.79-40.53 680.71-41.36Q681.64-42.19 683.01-42.19L683.01-42.19Q684.08-42.19 685.16-41.70Q686.23-41.21 687.11-40.53L687.11-40.53Q687.30-41.50 687.30-41.99ZM825-3.71L825-3.71Q825-2.34 824.51-1.71Q824.02-1.07 823.39-0.59Q822.75-0.10 822.27 0.39Q821.78 0.88 821.78 1.86L821.78 1.86Q821.78 2.44 821.88 2.73L821.88 2.73Q818.46 3.61 814.31 3.91Q810.16 4.20 806.64 4.20L806.64 4.20Q806.15 4.20 805.42 3.96Q804.69 3.71 804.00 3.37Q803.32 3.03 802.88 2.49Q802.44 1.95 802.44 1.37L802.44 1.37Q801.27 1.76 799.85 2.00Q798.44 2.25 797.12 2.64Q795.80 3.03 794.63 3.71Q793.46 4.39 792.68 5.57L792.68 5.57Q791.41 5.18 789.31 4.88Q787.21 4.59 784.86 4.20Q782.52 3.81 780.18 3.27Q777.83 2.73 775.93 1.90Q774.02 1.07 772.80-0.10Q771.58-1.27 771.58-3.03L771.58-3.03Q771.58-3.52 771.68-4.74Q771.78-5.96 772.07-7.23Q772.36-8.50 772.80-9.47Q773.24-10.45 773.83-10.45L773.83-10.45Q774.80-10.45 775.73-10.06Q776.66-9.67 777.73-9.67L777.73-9.67L778.71-9.77L778.81-10.55Q778.81-11.33 778.37-11.77Q777.93-12.21 777.25-12.35Q776.56-12.50 775.88-12.50Q775.20-12.50 774.61-12.50L774.61-12.50Q775.88-13.77 776.27-15.53Q776.66-17.29 776.66-18.95L776.66-18.95Q776.66-20.70 776.22-23.00Q775.78-25.29 774.80-27.44Q773.83-29.59 772.41-31.25Q771.00-32.91 769.04-33.40L769.04-33.40Q768.46-34.67 767.68-36.08Q766.89-37.50 765.87-38.67Q764.84-39.84 763.53-40.63Q762.21-41.41 760.64-41.41L760.64-41.41Q758.89-41.41 756.15-39.55Q753.42-37.70 750.83-35.30Q748.24-32.91 746.34-30.66Q744.43-28.42 744.43-27.64L744.43-27.64Q744.43-26.56 744.73-25.59Q745.02-24.61 745.02-23.54L745.02-23.54Q745.02-21.88 744.34-20.51Q743.65-19.14 742.58-18.07L742.58-18.07Q742.87-16.31 744.04-15.43Q745.21-14.55 746.83-14.11Q748.44-13.67 750.10-13.53Q751.76-13.38 753.13-13.09L753.13-13.09Q753.71-12.50 754.83-11.62Q755.96-10.74 756.98-9.72Q758.01-8.69 758.79-7.62Q759.57-6.54 759.57-5.66L759.57-5.66Q759.57-4.69 758.84-4.49Q758.11-4.30 757.23-4.20Q756.35-4.10 755.62-3.81Q754.88-3.52 754.88-2.54L754.88-2.54Q754.88-1.86 755.08-1.37L755.08-1.37Q750.39-1.17 745.95-0.44Q741.50 0.29 737.01 1.37L737.01 1.37Q735.16 1.86 733.30 1.95Q731.45 2.05 729.54 2.05Q727.64 2.05 725.68 2.15Q723.73 2.25 721.88 2.64L721.88 2.64Q720.51 2.93 719.14 2.93L719.14 2.93Q716.89 2.93 714.94 2.05Q712.99 1.17 711.52-0.39Q710.06-1.95 709.23-3.91Q708.40-5.86 708.40-8.11L708.40-8.11Q708.40-10.25 709.62-12.11Q710.84-13.96 713.38-13.96L713.38-13.96Q714.16-13.96 714.65-13.23Q715.14-12.50 715.92-12.50L715.92-12.50Q716.31-12.50 716.60-12.94Q716.89-13.38 717.24-13.96Q717.58-14.55 718.16-15.04Q718.75-15.53 719.63-15.72L719.63-15.72Q722.36-16.11 724.17-17.58Q725.98-19.04 726.95-21.14Q727.93-23.24 728.32-25.73Q728.71-28.22 728.71-30.66L728.71-30.66Q728.71-32.62 728.27-34.42Q727.83-36.23 727.83-38.09L727.83-38.09Q727.83-40.63 728.76-43.31Q729.69-46.00 729.69-49.32L729.69-49.32Q729.69-53.91 729.15-58.35Q728.61-62.79 728.61-67.38L728.61-67.38Q728.61-70.80 729.00-74.32Q729.39-77.83 729.39-81.25L729.39-81.25Q729.39-82.52 729.05-83.64Q728.71-84.77 728.32-85.79Q727.93-86.82 727.59-87.74Q727.25-88.67 727.25-89.65L727.25-89.65Q727.25-91.60 727.93-93.55Q728.61-95.51 728.61-97.46L728.61-97.46Q728.61-99.71 727.88-101.76Q727.15-103.81 727.15-106.05L727.15-106.05Q727.15-107.71 727.49-109.42Q727.83-111.13 727.83-112.89L727.83-112.89Q727.83-116.41 726.32-118.16Q724.80-119.92 722.56-120.75Q720.31-121.58 717.63-121.78Q714.94-121.97 712.70-122.41Q710.45-122.85 708.94-123.93Q707.42-125 707.42-127.44L707.42-127.44Q707.42-130.27 708.69-132.08Q709.96-133.89 711.91-134.86Q713.87-135.84 716.21-136.18Q718.55-136.52 720.80-136.52L720.80-136.52Q727.15-135.16 730.76-134.18Q734.38-133.20 736.18-132.52Q737.99-131.84 738.43-131.45Q738.87-131.05 739.06-130.76L739.06-130.76Q739.65-129.00 740.09-125.49Q740.53-121.97 740.82-118.12Q741.11-114.26 741.26-110.69Q741.41-107.13 741.41-105.37L741.41-105.37Q741.41-102.73 740.63-100.34Q739.84-97.95 739.84-95.41L739.84-95.41Q739.84-92.68 740.58-90.14Q741.31-87.60 741.50-84.86L741.50-84.86Q741.60-83.11 741.65-81.40Q741.70-79.69 741.70-77.93L741.70-77.93Q741.70-75.39 741.65-72.75Q741.60-70.12 741.60-67.48L741.60-67.48Q741.60-63.77 741.80-60.16Q741.99-56.54 742.58-52.93L742.58-52.93Q743.07-52.73 743.46-52.73Q743.85-52.73 744.34-52.73L744.34-52.73Q746.29-52.73 747.56-53.76Q748.83-54.79 749.90-56.15Q750.98-57.52 752.15-58.94Q753.32-60.35 755.08-61.13L755.08-61.13Q757.42-62.11 759.03-64.01Q760.64-65.92 762.11-67.97Q763.57-70.02 765.19-71.83Q766.80-73.63 769.14-74.61L769.14-74.61Q771.58-75.59 771.58-78.13L771.58-78.13Q771.58-79.59 771.19-81.01Q770.80-82.42 770.26-83.79Q769.73-85.16 769.34-86.57Q768.95-87.99 768.95-89.45L768.95-89.45L769.04-90.53L769.82-90.43L770.12-90.43Q770.51-90.43 770.90-90.48Q771.29-90.53 771.29-90.92L771.29-90.92Q770.80-91.70 770.80-92.68L770.80-92.68Q770.80-94.04 771.44-94.43Q772.07-94.82 773.24-94.82L773.24-94.82Q775.39-94.82 777.39-94.04Q779.39-93.26 781.54-93.26L781.54-93.26Q783.11-93.26 784.52-93.70Q785.94-94.14 787.40-94.68Q788.87-95.21 790.28-95.65Q791.70-96.09 793.26-96.09L793.26-96.09Q795.90-96.09 798.44-95.41Q800.98-94.73 803.61-94.73L803.61-94.73Q806.35-94.73 808.98-95.51Q811.62-96.29 814.45-96.29L814.45-96.29Q814.94-96.29 815.82-96.00Q816.70-95.70 817.53-95.21Q818.36-94.73 818.99-94.14Q819.63-93.55 819.63-92.97L819.63-92.97Q819.43-92.29 818.85-92.04Q818.26-91.80 818.26-91.41L818.26-91.41Q818.26-90.92 818.75-90.28Q819.24-89.65 819.87-88.92Q820.51-88.18 821.00-87.35Q821.48-86.52 821.48-85.64L821.48-85.64Q821.48-84.38 819.14-83.20Q816.80-82.03 813.72-81.10Q810.64-80.18 807.71-79.64Q804.79-79.10 803.61-79.10L803.61-79.10Q801.56-79.10 800.54-79.83Q799.51-80.57 798.54-80.57L798.54-80.57Q796.97-80.57 794.53-79.35Q792.09-78.13 789.31-76.17Q786.52-74.22 783.69-71.73Q780.86-69.24 778.56-66.80Q776.27-64.36 774.76-62.11Q773.24-59.86 773.24-58.40L773.24-58.40Q773.14-56.84 772.75-55.37Q772.36-53.91 772.36-52.34L772.36-52.34Q772.36-50.98 773.24-50.10Q774.12-49.22 775.29-48.49Q776.46-47.75 777.69-46.88Q778.91-46.00 779.49-44.73L779.49-44.73Q780.37-42.77 782.13-40.28Q783.89-37.79 785.99-35.01Q788.09-32.23 790.23-29.39Q792.38-26.56 794.19-23.88Q796.00-21.19 797.12-18.80Q798.24-16.41 798.24-14.65L798.24-14.65L798.24-13.96Q803.13-15.04 807.81-15.04L807.81-15.04Q811.04-15.04 814.21-14.70Q817.38-14.36 820.51-13.96L820.51-13.96L820.51-13.09L820.51-12.60Q820.51-10.64 821.19-9.42Q821.88-8.20 822.75-7.28Q823.63-6.35 824.32-5.52Q825-4.69 825-3.71Z" fill="#f4f4f5"></path>
  </g>
</svg>